<?xml version="1.0" encoding="iso-8859-1"?>
<!-- Generator: Adobe Illustrator 19.0.0, SVG Export Plug-In . SVG Version: 6.00 Build 0)  -->
<svg version="1.1" id="Layer_1" xmlns="http://www.w3.org/2000/svg" xmlns:xlink="http://www.w3.org/1999/xlink" x="0px" y="0px"
	 viewBox="0 0 512 512" style="enable-background:new 0 0 512 512;" xml:space="preserve">
<path style="fill:#F22F0A;" d="M412.805,420.449L268.956,244.262c-3.177-3.891-7.934-6.149-12.956-6.149
	c-5.022,0-9.781,2.257-12.956,6.149L99.195,420.449c-4.086,5.003-4.924,11.914-2.155,17.749c2.769,5.835,8.652,9.555,15.112,9.555
	h287.697c6.46,0,12.342-3.72,15.112-9.555C417.73,432.363,416.891,425.452,412.805,420.449z"/>
<path style="fill:#FF7F28;" d="M256,238.115c-5.022,0-9.781,2.257-12.956,6.149L99.195,420.45
	c-4.086,5.003-4.924,11.914-2.155,17.749s8.652,9.555,15.112,9.555h143.85L256,238.115z"/>
<path style="fill:#C6D7E4;" d="M371.674,370.072L268.956,244.262c-3.177-3.891-7.934-6.149-12.956-6.149
	c-5.022,0-9.781,2.257-12.956,6.149L140.329,370.067L371.674,370.072z"/>
<path style="fill:#EBEFFA;" d="M256,370.072V238.115c-5.022,0-9.781,2.257-12.956,6.149L140.329,370.068L256,370.072z"/>
<circle style="fill:#F22F0A;" cx="255.994" cy="335.524" r="18.399"/>
<path style="fill:#FF7F28;" d="M256,353.927c-10.162,0-18.399-8.237-18.399-18.399s8.237-18.399,18.399-18.399
	C256,320.074,256,353.927,256,353.927z"/>
<path style="fill:#F22F0A;" d="M414.96,60.332c-2.769-5.835-8.652-9.555-15.112-9.555H112.152c-6.46,0-12.342,3.72-15.112,9.555
	c-2.77,5.835-1.93,12.746,2.155,17.749l140.078,171.569V288.3c0,9.238,7.489,16.727,16.727,16.727
	c9.238,0,16.727-7.489,16.727-16.727v-38.651L412.805,78.081C416.891,73.077,417.729,66.168,414.96,60.332z"/>
<path style="fill:#FF7F28;" d="M112.152,50.776c-6.46,0-12.342,3.72-15.112,9.555s-1.93,12.746,2.155,17.749l140.078,171.569V288.3
	c0,9.238,7.489,16.727,16.727,16.727v-44.612l0.001-209.64h-143.85V50.776z"/>
<path style="fill:#C6D7E4;" d="M414.96,60.332c-2.769-5.835-8.652-9.555-15.112-9.555H112.152c-6.46,0-12.342,3.72-15.112,9.555
	c-2.77,5.835-1.93,12.746,2.155,17.749l80.728,98.876l152.157-0.004l80.725-98.872C416.891,73.077,417.729,66.168,414.96,60.332z"/>
<path style="fill:#EBEFFA;" d="M256.001,50.776h-143.85c-6.46,0-12.342,3.72-15.112,9.555s-1.93,12.746,2.155,17.749l80.728,98.876
	L256,176.952L256.001,50.776z"/>
<path style="fill:#6AB4F0;" d="M107.882,98.295h296.236c9.238,0,16.727-7.489,16.727-16.727V25.217
	c0-9.238-7.489-16.727-16.727-16.727H107.882c-9.238,0-16.727,7.489-16.727,16.727v56.352
	C91.155,90.807,98.644,98.295,107.882,98.295z"/>
<path style="fill:#9EDFFA;" d="M107.882,98.295H256V8.49H107.882c-9.238,0-16.727,7.489-16.727,16.727v56.352
	C91.155,90.807,98.644,98.295,107.882,98.295z"/>
<path style="fill:#0B2A96;" d="M89.698,0h332.604c9.238,0,16.727,7.489,16.727,16.727s-7.489,16.727-16.727,16.727H89.698
	c-9.238,0-16.727-7.489-16.727-16.727S80.459,0,89.698,0z"/>
<path style="fill:#044FC7;" d="M89.698,0h166.304v33.453H89.698c-9.238,0-16.727-7.489-16.727-16.727S80.459,0,89.698,0z"/>
<path style="fill:#6AB4F0;" d="M404.118,413.704H107.882c-9.238,0-16.727,7.489-16.727,16.727v56.352
	c0,9.238,7.489,16.727,16.727,16.727h296.236c9.238,0,16.727-7.489,16.727-16.727V430.43
	C420.845,421.193,413.356,413.704,404.118,413.704z"/>
<path style="fill:#9EDFFA;" d="M256.001,413.704H107.882c-9.238,0-16.727,7.489-16.727,16.727v56.352
	c0,9.238,7.489,16.727,16.727,16.727h148.119V413.704z"/>
<path style="fill:#0B2A96;" d="M422.302,512H89.698c-9.238,0-16.727-7.489-16.727-16.727s7.489-16.727,16.727-16.727h332.604
	c9.238,0,16.727,7.489,16.727,16.727S431.54,512,422.302,512z"/>
<path style="fill:#044FC7;" d="M256,512H89.698c-9.238,0-16.727-7.489-16.727-16.727s7.489-16.727,16.727-16.727H256L256,512
	L256,512z"/>
<g>
</g>
<g>
</g>
<g>
</g>
<g>
</g>
<g>
</g>
<g>
</g>
<g>
</g>
<g>
</g>
<g>
</g>
<g>
</g>
<g>
</g>
<g>
</g>
<g>
</g>
<g>
</g>
<g>
</g>
</svg>
