<svg data-v-423bf9ae="" xmlns="http://www.w3.org/2000/svg" viewBox="0 0 270.797659173115 163" class="iconAbove"><!----><!----><!----><g data-v-423bf9ae="" id="a49c6290-1b30-4f14-bd71-bac7b0b7ce6b" fill="#163530" transform="matrix(4.431314947937408,0,0,4.431314947937408,-4.431317935373812,90.41506391801843)"><path d="M1.00 11.47L1.00 11.47L2.23 10.94L2.30 10.94L2.30 10.94Q2.70 12.41 3.97 12.41L3.97 12.41L3.97 12.41Q5.24 12.41 6.32 10.94L6.32 10.94L6.32 10.94Q7.01 9.99 7.40 8.28L7.40 8.28L8.25 4.58L8.25 4.58Q8.32 4.28 7.98 4.28L7.98 4.28L4.34 4.28L4.36 4.21L5.13 3.12L8.25 3.12L8.25 3.12Q9.67 3.12 9.67 4.14L9.67 4.14L9.67 4.14Q9.67 4.33 9.62 4.58L9.62 4.58L8.76 8.28L8.76 8.28Q8.31 10.25 7.37 11.47L7.37 11.47L7.37 11.47Q5.74 13.58 3.70 13.58L3.70 13.58L3.70 13.58Q1.65 13.58 1.00 11.47ZM10.09 12.02L10.09 12.02L10.09 12.02Q10.09 12.02 11.29 11.51L11.29 11.51L11.35 11.51L11.35 11.51Q11.60 12.41 12.38 12.41L12.38 12.41L12.38 12.41Q13.13 12.41 13.65 11.92L13.65 11.92L13.65 11.92Q14.08 11.53 14.19 11.04L14.19 11.04L14.19 11.04Q14.23 10.90 14.23 10.77L14.23 10.77L14.23 10.77Q14.23 10.45 14.02 10.25L14.02 10.25L14.02 10.25Q13.72 9.95 13.05 9.84L13.05 9.84L13.05 9.84Q12.20 9.70 11.75 9.32L11.75 9.32L11.75 9.32Q11.30 8.93 11.30 8.30L11.30 8.30L11.30 8.30Q11.30 8.07 11.36 7.80L11.36 7.80L11.36 7.80Q11.57 6.86 12.60 6.23L12.60 6.23L12.60 6.23Q13.32 5.78 14.12 5.78L14.12 5.78L14.12 5.78Q15.46 5.78 15.77 7.08L15.77 7.08L14.57 7.59L14.51 7.59L14.51 7.59Q14.34 6.95 13.84 6.95L13.84 6.95L13.84 6.95Q13.43 6.95 13.13 7.15L13.13 7.15L13.13 7.15Q12.78 7.39 12.67 7.83L12.67 7.83L12.67 7.83Q12.64 7.94 12.64 8.03L12.64 8.03L12.64 8.03Q12.64 8.30 12.87 8.43L12.87 8.43L12.87 8.43Q13.18 8.61 13.86 8.76L13.86 8.76L13.86 8.76Q14.71 8.95 15.16 9.37L15.16 9.37L15.16 9.37Q15.59 9.78 15.59 10.48L15.59 10.48L15.59 10.48Q15.59 10.77 15.51 11.12L15.51 11.12L15.51 11.12Q15.32 12.00 14.33 12.81L14.33 12.81L14.33 12.81Q13.41 13.58 12.11 13.58L12.11 13.58L12.11 13.58Q10.58 13.58 10.09 12.02ZM19.06 9.68L19.06 9.68L19.06 9.68Q18.87 10.53 18.87 11.05L18.87 11.05L18.87 11.05Q18.87 11.32 18.92 11.51L18.92 11.51L18.92 11.51Q19.17 12.41 19.94 12.41L19.94 12.41L19.94 12.41Q20.71 12.41 21.38 11.51L21.38 11.51L21.38 11.51Q21.80 10.94 22.09 9.68L22.09 9.68L22.09 9.68Q22.28 8.84 22.28 8.31L22.28 8.31L22.28 8.31Q22.28 8.03 22.22 7.85L22.22 7.85L22.22 7.85Q21.99 6.95 21.20 6.95L21.20 6.95L21.20 6.95Q20.40 6.95 19.74 7.86L19.74 7.86L19.74 7.86Q19.35 8.42 19.06 9.68ZM17.69 9.69L17.69 9.69L17.69 9.69Q18.02 8.25 18.72 7.36L18.72 7.36L18.72 7.36Q19.95 5.78 21.47 5.78L21.47 5.78L21.47 5.78Q22.99 5.78 23.49 7.36L23.49 7.36L23.49 7.36Q23.63 7.79 23.63 8.33L23.63 8.33L23.63 8.33Q23.63 8.93 23.45 9.68L23.45 9.68L23.45 9.68Q23.11 11.14 22.43 12.00L22.43 12.00L22.43 12.00Q21.18 13.58 19.67 13.58L19.67 13.58L19.67 13.58Q18.18 13.58 17.65 12.00L17.65 12.00L17.65 12.00Q17.51 11.59 17.51 11.07L17.51 11.07L17.51 11.07Q17.51 10.47 17.69 9.69ZM29.32 12.28L29.32 12.28L29.32 12.28Q29.32 12.28 31.01 12.28L31.01 12.28L30.99 12.35L30.23 13.44L27.03 13.44L27.04 13.37L27.81 12.28L27.81 12.28Q28.77 11.70 29.20 11.16L29.20 11.16L29.20 11.16Q29.72 10.49 29.90 9.68L29.90 9.68L29.90 9.68Q30.09 8.84 30.09 8.31L30.09 8.31L30.09 8.31Q30.09 8.03 30.04 7.85L30.04 7.85L30.04 7.85Q29.80 6.95 29.01 6.95L29.01 6.95L29.01 6.95Q28.24 6.95 27.58 7.85L27.58 7.85L27.58 7.85Q27.17 8.41 26.87 9.68L26.87 9.68L26.09 13.10L24.64 13.71L24.58 13.71L25.50 9.68L25.50 9.68Q25.83 8.25 26.53 7.36L26.53 7.36L26.53 7.36Q27.77 5.78 29.29 5.78L29.29 5.78L29.29 5.78Q30.84 5.78 31.30 7.36L31.30 7.36L31.30 7.36Q31.44 7.83 31.44 8.38L31.44 8.38L31.44 8.38Q31.44 8.99 31.27 9.68L31.27 9.68L31.27 9.68Q30.89 11.33 29.32 12.28ZM36.86 13.44L34.50 13.44L34.50 13.44Q33.07 13.44 33.07 12.41L33.07 12.41L33.07 12.41Q33.07 12.22 33.13 11.98L33.13 11.98L35.10 3.46L36.54 2.84L36.61 2.84L34.49 11.98L34.49 11.98Q34.43 12.28 34.77 12.28L34.77 12.28L37.13 12.28L37.13 12.28Q37.93 12.28 38.32 11.48L38.32 11.48L38.39 11.48L39.31 11.96L39.31 11.96Q38.55 13.44 36.86 13.44L36.86 13.44ZM43.09 12.48L42.33 13.58L42.33 13.58Q40.81 13.58 40.31 12.00L40.31 12.00L40.31 12.00Q40.17 11.57 40.17 11.03L40.17 11.03L40.17 11.03Q40.17 10.42 40.35 9.68L40.35 9.68L40.35 9.68Q40.69 8.24 41.37 7.36L41.37 7.36L41.37 7.36Q42.60 5.78 44.13 5.78L44.13 5.78L44.13 5.78Q45.68 5.78 46.15 7.36L46.15 7.36L46.15 7.36Q46.28 7.80 46.28 8.33L46.28 8.33L46.28 8.33Q46.28 8.94 46.11 9.68L46.11 9.68L45.51 12.25L45.51 12.25Q45.45 12.55 45.77 12.55L45.77 12.55L46.30 12.55L46.29 12.62L45.52 13.71L45.52 13.71Q44.09 13.71 44.09 12.69L44.09 12.69L44.09 12.69Q44.09 12.49 44.15 12.25L44.15 12.25L44.74 9.68L44.74 9.68Q44.93 8.83 44.93 8.31L44.93 8.31L44.93 8.31Q44.93 8.05 44.88 7.85L44.88 7.85L44.88 7.85Q44.63 6.95 43.86 6.95L43.86 6.95L43.86 6.95Q43.09 6.95 42.42 7.85L42.42 7.85L42.42 7.85Q42.01 8.42 41.71 9.68L41.71 9.68L41.71 9.68Q41.52 10.51 41.52 11.03L41.52 11.03L41.52 11.03Q41.52 11.31 41.58 11.51L41.58 11.51L41.58 11.51Q41.82 12.41 42.59 12.41L42.59 12.41L43.11 12.41L43.09 12.48ZM52.18 12.28L52.18 12.28L52.18 12.28Q52.18 12.28 53.87 12.28L53.87 12.28L53.85 12.35L53.09 13.44L49.89 13.44L49.90 13.37L50.67 12.28L50.67 12.28Q51.63 11.70 52.06 11.16L52.06 11.16L52.06 11.16Q52.58 10.49 52.76 9.68L52.76 9.68L52.76 9.68Q52.95 8.84 52.95 8.31L52.95 8.31L52.95 8.31Q52.95 8.03 52.90 7.85L52.90 7.85L52.90 7.85Q52.66 6.95 51.87 6.95L51.87 6.95L51.87 6.95Q51.10 6.95 50.44 7.85L50.44 7.85L50.44 7.85Q50.03 8.41 49.73 9.68L49.73 9.68L48.95 13.10L47.50 13.71L47.43 13.71L48.36 9.68L48.36 9.68Q48.69 8.25 49.39 7.36L49.39 7.36L49.39 7.36Q50.63 5.78 52.14 5.78L52.14 5.78L52.14 5.78Q53.70 5.78 54.16 7.36L54.16 7.36L54.16 7.36Q54.30 7.83 54.30 8.38L54.30 8.38L54.30 8.38Q54.30 8.99 54.13 9.68L54.13 9.68L54.13 9.68Q53.75 11.33 52.18 12.28ZM58.92 12.48L58.15 13.58L58.15 13.58Q56.66 13.58 56.14 12.00L56.14 12.00L56.14 12.00Q56 11.58 56 11.05L56 11.05L56 11.05Q56 10.42 56.18 9.68L56.18 9.68L56.18 9.68Q56.51 8.25 57.20 7.36L57.20 7.36L57.20 7.36Q58.44 5.78 59.96 5.78L59.96 5.78L59.96 5.78Q61.48 5.78 61.97 7.36L61.97 7.36L61.97 7.36Q62.11 7.79 62.11 8.33L62.11 8.33L62.11 8.33Q62.11 8.94 61.94 9.68L61.94 9.68L61.29 12.48L61.29 12.48Q60.97 13.88 60.27 14.80L60.27 14.80L60.27 14.80Q59.07 16.38 57.52 16.38L57.52 16.38L55.87 16.38L55.88 16.31L56.66 15.22L57.78 15.22L57.78 15.22Q58.63 15.22 59.22 14.31L59.22 14.31L59.22 14.31Q59.66 13.63 59.92 12.48L59.92 12.48L60.57 9.68L60.57 9.68Q60.76 8.85 60.76 8.33L60.76 8.33L60.76 8.33Q60.76 8.05 60.71 7.85L60.71 7.85L60.71 7.85Q60.46 6.95 59.68 6.95L59.68 6.95L59.68 6.95Q58.91 6.95 58.24 7.85L58.24 7.85L58.24 7.85Q57.83 8.42 57.54 9.68L57.54 9.68L57.54 9.68Q57.35 10.52 57.35 11.05L57.35 11.05L57.35 11.05Q57.35 11.31 57.40 11.51L57.40 11.51L57.40 11.51Q57.65 12.41 58.41 12.41L58.41 12.41L58.94 12.41L58.92 12.48Z"></path></g><defs data-v-423bf9ae=""><linearGradient data-v-423bf9ae="" gradientTransform="rotate(25)" id="866fc749-c7ef-4511-be9e-0bb9b38a95db" x1="0%" y1="0%" x2="100%" y2="0%"><stop data-v-423bf9ae="" offset="0%" style="stop-color: rgb(2, 24, 2); stop-opacity: 1;"></stop><stop data-v-423bf9ae="" offset="100%" style="stop-color: rgb(96, 219, 204); stop-opacity: 1;"></stop></linearGradient></defs><g data-v-423bf9ae="" id="c0976bbb-adda-4823-a248-cd09e9ecc3ad" transform="matrix(1.4516129032258065,0,0,1.4516129032258065,63.41935483870968,-27.58064516129032)" stroke="none" fill="url(#866fc749-c7ef-4511-be9e-0bb9b38a95db)"><path d="M71.1 40.7l9.8 1L95 29.6l-19.6-5.7-11.8 5.6L57.7 40l4.6 10.2-10.9 18.5-23.3 1.6-11.3-20.4L29.9 29l13.8.1-10.8 20.8 13.8 9.9-5.9-9.6L54 29.6 47.9 19H24.2L5 50.2l16.6 30.4 35.5.4L75 50.7z"></path></g><!----></svg>